<svg width="40" height="40" viewBox="0 0 40 40" fill="none" xmlns="http://www.w3.org/2000/svg">
<path d="M34.9166 0.5H35.4166C37.6688 0.5 39.5 2.3312 39.5 4.58344V35.4166C39.5 37.6688 37.6688 39.5 35.4166 39.5H4.58344C2.3312 39.5 0.5 37.6688 0.5 35.4166V4.58344C0.5 2.3312 2.3312 0.5 4.58344 0.5H34.9166Z" fill="white" stroke="white"/>
<path d="M26.6666 28.3334H13.3334C12.4118 28.3334 11.6666 27.5867 11.6666 26.6666C11.6666 25.7468 12.4118 25 13.3334 25H26.6666C27.5882 25 28.3334 25.7468 28.3334 26.6666C28.3334 27.5867 27.5882 28.3334 26.6666 28.3334Z" fill="#EA6464"/>
<path d="M26.6666 21.6666H13.3334C12.4118 21.6666 11.6666 20.9201 11.6666 20C11.6666 19.0799 12.4118 18.3334 13.3334 18.3334H26.6666C27.5882 18.3334 28.3334 19.0799 28.3334 20C28.3334 20.9201 27.5882 21.6666 26.6666 21.6666Z" fill="#EA6464"/>
<path d="M26.6666 15H13.3334C12.4118 15 11.6666 14.2532 11.6666 13.3334C11.6666 12.4133 12.4118 11.6666 13.3334 11.6666H26.6666C27.5882 11.6666 28.3334 12.4133 28.3334 13.3334C28.3334 14.2532 27.5882 15 26.6666 15Z" fill="#EA6464"/>
<rect x="0.5" y="0.5" width="39" height="39" stroke="white"/>
</svg>
